<svg width="120" height="120" viewBox="0 0 120 120" fill="none" xmlns="http://www.w3.org/2000/svg">
<path d="M66.4091 40.4452C67.6548 40.7788 68.9185 40.9433 70.1736 40.9433C72.6791 40.9433 75.1537 40.2858 77.3822 38.9992C80.7291 37.0672 83.1217 33.9496 84.1213 30.2187C86.1877 22.5195 81.6014 14.5717 73.8943 12.5007C70.1623 11.501 66.2658 12.0147 62.9203 13.9468C59.5734 15.8788 57.1808 18.9999 56.1824 22.732C54.1195 30.4359 58.707 38.381 66.4094 40.444L66.4091 40.4452ZM61.7915 24.2342C62.3892 21.9998 63.822 20.1315 65.8247 18.9744C67.1591 18.2041 68.6411 17.8103 70.1411 17.8103C70.8923 17.8103 71.647 17.9087 72.3923 18.108C77.0052 19.3475 79.7521 24.1057 78.5146 28.715C77.917 30.9494 76.4841 32.8154 74.4814 33.9709C72.4787 35.1264 70.1447 35.435 67.9115 34.8361C63.3021 33.6013 60.5568 28.8459 61.7916 24.2331L61.7915 24.2342ZM68.1036 28.5252C67.5587 27.9803 67.2529 27.2424 67.2529 26.4732V22.1064C67.2529 20.5033 68.5525 19.2037 70.1556 19.2037C71.7587 19.2037 73.0583 20.5033 73.0583 22.1064V25.2709L74.8032 27.0158C75.9372 28.1498 75.9372 29.9869 74.8032 31.1209C74.2368 31.6873 73.4938 31.9705 72.7512 31.9705C72.0082 31.9705 71.2657 31.6873 70.6992 31.1197L68.1047 28.5252L68.1036 28.5252ZM86.8966 49.8162C84.6704 45.9752 79.7361 44.6537 75.8986 46.8689C74.8556 47.4689 73.9798 48.2791 73.3115 49.2412C70.7806 47.8131 67.5791 47.7185 64.8861 49.2725C63.499 50.0728 62.39 51.226 61.6521 52.6084C59.3095 51.658 56.5677 51.7564 54.2158 53.1146C53.4143 53.5755 52.7049 54.1548 52.1072 54.8283L46.1275 44.4743C45.0017 42.5173 43.1755 41.1153 40.983 40.5263C38.7857 39.9361 36.4963 40.2349 34.5353 41.3673C30.4853 43.706 29.0931 48.9044 31.4322 52.9563L46.4492 78.9673L45.6703 78.5185C40.0277 75.2619 33.0023 77.2189 29.6753 82.979C28.846 84.4177 28.6276 86.0966 29.062 87.7048C29.4952 89.3114 30.5249 90.6509 31.9565 91.4728L55.0276 104.796C58.7214 106.929 62.6845 107.995 66.6495 107.995C70.6132 107.995 74.5781 106.928 78.2706 104.796L88.4176 98.9372C99.5156 92.5317 103.332 78.2902 96.9242 67.1892L86.8942 49.8132L86.8966 49.8162ZM85.5177 93.9122L75.3697 99.7708C69.8295 102.971 63.4737 102.971 57.9337 99.7708L34.8567 86.4438C34.7392 86.3766 34.6911 86.2723 34.6696 86.1954C34.6493 86.1172 34.6384 85.9997 34.7056 85.8821C35.8708 83.8649 37.829 82.7524 39.863 82.7524C40.8423 82.7524 41.8368 83.0102 42.7704 83.5493L52.9294 89.4126C54.0669 90.0688 55.5048 89.8794 56.4333 88.9505C57.3622 88.0215 57.5517 86.5841 56.8942 85.4466L36.4622 50.0566C35.7231 48.7761 36.1622 47.1347 37.4403 46.3976C38.0571 46.0413 38.7817 45.9476 39.479 46.1358C40.1716 46.3218 40.7462 46.7612 41.1001 47.3764L57.5171 75.8114C58.0546 76.7427 59.0304 77.2634 60.0335 77.2634C60.5257 77.2634 61.0245 77.1373 61.4819 76.8748C62.8702 76.0732 63.3456 74.2982 62.5452 72.91C62.5452 72.91 56.2116 61.935 56.1386 61.808C55.7824 61.1912 55.6898 60.4666 55.8769 59.7693C56.0629 59.0767 56.5023 58.5021 57.1164 58.1482C58.3957 57.4091 60.0383 57.8482 60.7754 59.1263L67.1883 70.2283C67.7258 71.1595 68.7016 71.6791 69.7047 71.6791C70.1981 71.6791 70.6973 71.5529 71.1543 71.2892C72.5426 70.4877 73.018 68.7115 72.2152 67.3232L66.8129 57.9705C66.8129 57.9705 66.8094 57.9635 66.8082 57.9596C66.4531 57.3452 66.3606 56.6241 66.5477 55.9291C66.7348 55.2342 67.1766 54.6549 67.7922 54.2994C69.0715 53.5615 70.7129 54.0006 71.4512 55.2775L76.861 64.6423C77.3985 65.5736 78.3743 66.0931 79.3774 66.0931C79.8707 66.0931 80.37 65.967 80.827 65.7033C82.2153 64.9017 82.6907 63.1256 81.8879 61.7373L77.9781 54.9717V54.9705L77.9746 54.9647C77.6792 54.4498 77.6039 53.8463 77.7585 53.2643C77.9144 52.6799 78.2843 52.1952 78.8015 51.8975C79.8742 51.2783 81.2531 51.6502 81.8745 52.7217L91.9015 70.0927C96.7085 78.4208 93.8456 89.1057 85.521 93.9107L85.5177 93.9122ZM28.3307 63.6422C27.6565 63.6422 26.9784 63.4082 26.4287 62.9305C24.8557 61.5637 23.5283 59.952 22.483 58.1414C17.2967 49.1484 20.39 37.6114 29.3771 32.4234C33.7306 29.9082 38.8044 29.2398 43.6621 30.5418C48.5211 31.8438 52.5793 34.9613 55.0921 39.3176C56.1386 41.1321 56.8718 43.0844 57.2702 45.1196C57.5773 46.6926 56.5515 48.218 54.978 48.5251C53.405 48.8337 51.8796 47.8063 51.5725 46.2329C51.2979 44.8278 50.7901 43.4767 50.0639 42.2177C48.3264 39.2044 45.5194 37.0493 42.1596 36.1482C38.7994 35.2482 35.292 35.7103 32.2811 37.449C26.0639 41.0381 23.9256 49.019 27.5123 55.24C28.2346 56.4916 29.1502 57.6041 30.2361 58.547C31.447 59.5982 31.5752 61.4318 30.524 62.6415C29.9506 63.3028 29.1428 63.6411 28.3314 63.6411L28.3307 63.6422Z" fill="#B9C7FF"/>
</svg>
