<svg width="120" height="120" viewBox="0 0 120 120" fill="none" xmlns="http://www.w3.org/2000/svg">
<path d="M93.1599 42.779C91.5505 42.779 90.0377 43.1942 88.7202 43.9239C87.1136 40.7669 83.8292 38.5997 80.0491 38.5997C77.9624 38.5997 76.0268 39.261 74.4417 40.3852C72.6886 37.8293 69.7447 36.1481 66.4158 36.1481C65.0252 36.1481 63.7025 36.4422 62.5049 36.97V21.726C62.5049 16.3655 58.1441 12.0037 52.7827 12.0037C47.421 12.0037 43.0603 16.3646 43.0603 21.726V50.758C42.7795 50.7533 42.4916 50.7627 42.1986 50.7857C39.4279 51.0064 36.4841 52.4427 34.3267 54.6306C32.4872 56.4954 30.2947 59.7966 30.2947 64.9376V72.3321C30.3018 77.3938 31.0557 87.1401 36.015 95.5511C40.8162 103.695 48.176 107.997 57.297 107.997H74.611C89.905 107.997 102.349 95.5541 102.349 80.2591V51.9741C102.349 46.9042 98.226 42.7784 93.1595 42.7784L93.1599 42.779ZM96.544 80.26C96.544 92.353 86.7053 102.191 74.613 102.191H57.2989C50.2477 102.191 44.7709 98.964 41.0189 92.6008C37.906 87.3219 36.1146 79.9298 36.1025 72.3268V64.9373C36.1025 60.615 38.4412 58.485 39.8345 57.5994C41.1029 56.7943 42.2837 56.5603 42.9654 56.5603C42.999 56.5603 43.0303 56.5615 43.0615 56.5626V69.2486C43.0615 70.8517 44.3611 72.1513 45.9642 72.1513C47.5673 72.1513 48.8669 70.8517 48.8669 69.2486V21.7256C48.8669 19.5666 50.6235 17.81 52.7825 17.81C54.9415 17.81 56.6981 19.5666 56.6981 21.7256V57.7996C56.6981 59.4027 57.9977 60.7023 59.6008 60.7023C61.2039 60.7023 62.5035 59.4027 62.5035 57.7996V45.8676C62.5035 43.7086 64.2578 41.952 66.4144 41.952C68.5706 41.952 70.33 43.7063 70.33 45.8629V57.8009C70.33 59.404 71.6296 60.7036 73.2327 60.7036C74.8358 60.7036 76.1354 59.404 76.1354 57.8009V48.3161C76.1354 46.1599 77.8897 44.4052 80.0463 44.4052C82.2025 44.4052 83.9619 46.1595 83.9619 48.3161V57.8009C83.9619 59.404 85.2615 60.7036 86.8646 60.7036C88.4677 60.7036 89.7673 59.404 89.7673 57.8009V51.9747C89.7673 50.1063 91.2876 48.586 93.156 48.586C95.0244 48.586 96.54 50.1063 96.54 51.9747V80.2597L96.544 80.26ZM30.2269 21.824V48.413C30.2269 50.0161 28.9274 51.3157 27.3243 51.3157C25.7212 51.3157 24.4215 50.0161 24.4215 48.413V22.011L22.6274 23.8399C22.0587 24.4196 21.3075 24.7098 20.5551 24.7098C19.8219 24.7098 19.0875 24.4336 18.5223 23.8793C17.3774 22.7563 17.3594 20.9188 18.4829 19.7742L25.252 12.873C25.7907 12.3234 26.5262 12.0102 27.2969 12.0031C28.0625 11.9922 28.809 12.2945 29.3586 12.8348L36.2551 19.6039C37.4 20.7269 37.4168 22.5656 36.2934 23.709C35.1704 24.8528 33.3317 24.8707 32.1883 23.7472L30.2285 21.8238L30.2269 21.824Z" fill="#B9C7FF"/>
</svg>
